<svg width="64" height="65" viewBox="0 0 64 65" fill="none" xmlns="http://www.w3.org/2000/svg">
<g id="account_circle">
<path id="icon" d="M15.6 46.1C17.8667 44.3667 20.4 43 23.2 42C26 41 28.9334 40.5 32 40.5C35.0667 40.5 38 41 40.8 42C43.6 43 46.1334 44.3667 48.4 46.1C49.9556 44.2778 51.1667 42.2111 52.0334 39.9C52.9 37.5889 53.3334 35.1222 53.3334 32.5C53.3334 26.5889 51.2556 21.5556 47.1 17.4C42.9445 13.2444 37.9112 11.1667 32 11.1667C26.0889 11.1667 21.0556 13.2444 16.9 17.4C12.7445 21.5556 10.6667 26.5889 10.6667 32.5C10.6667 35.1222 11.1 37.5889 11.9667 39.9C12.8334 42.2111 14.0445 44.2778 15.6 46.1ZM32 35.1667C29.3778 35.1667 27.1667 34.2667 25.3667 32.4667C23.5667 30.6667 22.6667 28.4556 22.6667 25.8333C22.6667 23.2111 23.5667 21 25.3667 19.2C27.1667 17.4 29.3778 16.5 32 16.5C34.6223 16.5 36.8334 17.4 38.6334 19.2C40.4334 21 41.3334 23.2111 41.3334 25.8333C41.3334 28.4556 40.4334 30.6667 38.6334 32.4667C36.8334 34.2667 34.6223 35.1667 32 35.1667ZM32 59.1667C28.3112 59.1667 24.8445 58.4667 21.6 57.0667C18.3556 55.6667 15.5334 53.7667 13.1334 51.3667C10.7334 48.9667 8.83337 46.1444 7.43337 42.9C6.03337 39.6556 5.33337 36.1889 5.33337 32.5C5.33337 28.8111 6.03337 25.3444 7.43337 22.1C8.83337 18.8556 10.7334 16.0333 13.1334 13.6333C15.5334 11.2333 18.3556 9.33333 21.6 7.93333C24.8445 6.53333 28.3112 5.83333 32 5.83333C35.6889 5.83333 39.1556 6.53333 42.4 7.93333C45.6445 9.33333 48.4667 11.2333 50.8667 13.6333C53.2667 16.0333 55.1667 18.8556 56.5667 22.1C57.9667 25.3444 58.6667 28.8111 58.6667 32.5C58.6667 36.1889 57.9667 39.6556 56.5667 42.9C55.1667 46.1444 53.2667 48.9667 50.8667 51.3667C48.4667 53.7667 45.6445 55.6667 42.4 57.0667C39.1556 58.4667 35.6889 59.1667 32 59.1667Z" fill="#F1D27D"/>
</g>
</svg>
