<svg width="42" height="43" viewBox="0 0 42 43" fill="none" xmlns="http://www.w3.org/2000/svg">
<g id="search">
<path id="icon" d="M34.3 37.25L23.275 26.225C22.4 26.925 21.3937 27.4792 20.2562 27.8875C19.1187 28.2958 17.9083 28.5 16.625 28.5C13.4458 28.5 10.7552 27.399 8.55313 25.1969C6.35104 22.9948 5.25 20.3042 5.25 17.125C5.25 13.9458 6.35104 11.2552 8.55313 9.05313C10.7552 6.85104 13.4458 5.75 16.625 5.75C19.8042 5.75 22.4948 6.85104 24.6969 9.05313C26.899 11.2552 28 13.9458 28 17.125C28 18.4083 27.7958 19.6187 27.3875 20.7562C26.9792 21.8937 26.425 22.9 25.725 23.775L36.75 34.8L34.3 37.25ZM16.625 25C18.8125 25 20.6719 24.2344 22.2031 22.7031C23.7344 21.1719 24.5 19.3125 24.5 17.125C24.5 14.9375 23.7344 13.0781 22.2031 11.5469C20.6719 10.0156 18.8125 9.25 16.625 9.25C14.4375 9.25 12.5781 10.0156 11.0469 11.5469C9.51562 13.0781 8.75 14.9375 8.75 17.125C8.75 19.3125 9.51562 21.1719 11.0469 22.7031C12.5781 24.2344 14.4375 25 16.625 25Z" fill="#9E9E9E"/>
</g>
</svg>
