<svg width="59" height="59" viewBox="0 0 59 59" fill="none" xmlns="http://www.w3.org/2000/svg">
<g id="Shopping cart">
<path id="Icon" d="M2.45837 2.45833H12.2917L18.88 35.3754C19.1048 36.5072 19.7206 37.5239 20.6194 38.2475C21.5183 38.9711 22.643 39.3554 23.7967 39.3333H47.6917C48.8454 39.3554 49.9701 38.9711 50.869 38.2475C51.7679 37.5239 52.3836 36.5072 52.6084 35.3754L56.5417 14.75H14.75M24.5834 51.625C24.5834 52.9827 23.4827 54.0833 22.125 54.0833C20.7673 54.0833 19.6667 52.9827 19.6667 51.625C19.6667 50.2673 20.7673 49.1667 22.125 49.1667C23.4827 49.1667 24.5834 50.2673 24.5834 51.625ZM51.625 51.625C51.625 52.9827 50.5244 54.0833 49.1667 54.0833C47.809 54.0833 46.7084 52.9827 46.7084 51.625C46.7084 50.2673 47.809 49.1667 49.1667 49.1667C50.5244 49.1667 51.625 50.2673 51.625 51.625Z" stroke="#F1D27D" stroke-width="4" stroke-linecap="round" stroke-linejoin="round"/>
</g>
</svg>
